<?xml version="1.0" standalone="no"?>
<!DOCTYPE svg PUBLIC "-//W3C//DTD SVG 20010904//EN"
 "http://www.w3.org/TR/2001/REC-SVG-20010904/DTD/svg10.dtd">
<svg version="1.0" xmlns="http://www.w3.org/2000/svg"
 width="400.000000pt" height="400.000000pt" viewBox="0 0 400.000000 400.000000"
 preserveAspectRatio="xMidYMid meet">
<metadata>
Created by potrace 1.14, written by Peter Selinger 2001-2017
</metadata>
<g transform="translate(0.000000,400.000000) scale(0.100000,-0.100000)"
fill="#000000" stroke="none">
<path d="M1809 3816 c-2 -3 -29 -7 -59 -10 -30 -3 -65 -8 -77 -11 -13 -3 -33
-7 -45 -10 -13 -2 -35 -7 -50 -11 -15 -3 -29 -5 -30 -4 -2 0 -21 -6 -43 -16
-22 -9 -42 -16 -45 -15 -9 2 -75 -22 -87 -32 -7 -5 -13 -6 -13 -2 0 4 -6 2
-13 -4 -8 -6 -17 -8 -20 -4 -4 3 -7 1 -7 -5 0 -7 -3 -11 -7 -10 -5 2 -32 -7
-60 -20 -29 -12 -56 -22 -60 -21 -3 0 -10 -6 -15 -15 -5 -9 -13 -14 -19 -11
-5 4 -9 1 -9 -4 0 -6 -7 -11 -15 -11 -8 0 -15 -5 -15 -11 0 -5 -4 -8 -9 -4 -5
3 -15 -1 -23 -8 -7 -7 -17 -15 -23 -17 -13 -4 -86 -50 -102 -64 -32 -29 -43
-36 -52 -36 -5 0 -11 -3 -13 -7 -1 -5 -24 -25 -49 -45 -71 -57 -189 -175 -189
-189 0 -7 -3 -10 -6 -6 -7 6 -124 -137 -124 -152 0 -5 -7 -11 -15 -15 -8 -3
-15 -11 -15 -17 0 -7 -6 -20 -14 -28 -17 -19 -54 -85 -91 -161 -15 -30 -32
-58 -38 -62 -7 -4 -8 -8 -4 -8 4 0 2 -10 -5 -22 -7 -13 -13 -25 -14 -28 -12
-35 -16 -51 -14 -56 1 -4 -3 -10 -9 -14 -6 -3 -14 -17 -17 -31 -3 -13 -7 -28
-8 -34 -2 -5 -7 -25 -11 -42 -4 -18 -11 -33 -15 -33 -4 0 -8 -11 -9 -25 -3
-48 -4 -55 -13 -55 -5 0 -7 -3 -5 -7 3 -5 -3 -48 -13 -98 -15 -75 -17 -131
-15 -335 3 -209 7 -295 15 -295 2 0 6 -20 14 -66 3 -20 10 -49 16 -64 6 -15 8
-30 5 -33 -2 -3 0 -11 6 -18 5 -7 12 -24 15 -39 5 -30 46 -137 77 -205 11 -25
21 -47 22 -50 5 -19 40 -80 47 -80 4 0 5 -6 2 -14 -3 -7 2 -16 10 -19 9 -4 16
-11 16 -17 0 -14 82 -139 114 -173 13 -14 22 -27 20 -29 -2 -2 19 -28 46 -56
27 -29 47 -52 43 -52 -3 0 10 -13 30 -29 20 -15 34 -31 30 -35 -3 -3 -2 -6 3
-6 5 0 36 -25 69 -56 33 -30 72 -63 88 -72 15 -9 27 -20 27 -24 0 -4 5 -8 10
-8 6 0 20 -9 32 -20 11 -10 36 -26 54 -35 19 -9 34 -20 34 -25 0 -6 9 -10 20
-10 11 0 20 -4 20 -10 0 -5 11 -12 25 -16 14 -3 25 -9 25 -13 0 -5 21 -16 70
-36 3 -1 30 -13 60 -27 104 -47 115 -51 128 -49 6 1 12 -3 12 -9 0 -6 4 -9 8
-6 5 3 21 -2 37 -10 16 -8 35 -12 42 -10 7 3 13 2 13 -2 0 -4 8 -9 18 -10 21
-2 57 -10 57 -12 0 -6 148 -29 156 -24 5 3 9 1 9 -3 0 -13 57 -17 250 -17 183
0 270 5 270 15 0 4 12 7 28 7 26 0 39 2 107 17 17 4 38 7 48 8 9 1 17 5 17 9
0 4 23 10 50 14 28 4 50 10 50 15 0 5 3 8 8 8 4 -1 10 0 15 1 4 1 10 3 15 4
21 5 128 49 138 57 6 5 14 6 17 2 4 -3 7 -1 7 6 0 7 4 10 9 6 5 -3 15 0 23 7
7 7 37 24 66 37 28 14 52 28 52 33 0 4 9 8 20 8 11 0 20 5 20 10 0 6 7 10 15
10 8 0 15 4 15 8 0 4 14 16 32 26 17 11 40 26 50 35 10 9 20 14 21 12 10 -19
345 324 371 380 5 10 13 19 18 19 5 0 6 5 3 10 -3 6 -1 10 5 10 5 0 18 16 27
35 9 19 19 35 23 35 3 0 30 48 60 108 30 59 60 110 65 114 6 4 6 8 1 8 -5 0
-3 7 4 15 7 8 9 15 5 15 -4 0 0 11 9 25 9 13 16 30 16 37 0 7 6 25 14 40 8 15
18 42 22 60 4 18 9 36 10 41 1 4 2 8 4 10 2 2 6 19 14 57 3 14 9 39 13 55 4
17 6 36 4 43 -1 6 2 12 6 12 11 0 14 37 18 299 3 145 0 241 -6 252 -7 13 -6
19 1 19 7 0 8 6 1 18 -5 9 -9 20 -10 25 -1 4 -1 8 -2 10 0 1 -2 16 -4 32 -4
35 -14 83 -22 105 -3 8 -7 22 -8 30 -7 36 -14 60 -25 79 -6 12 -8 21 -4 21 3
0 1 7 -6 15 -7 8 -9 15 -4 15 4 0 3 5 -4 12 -7 7 -12 18 -12 26 0 7 -11 37
-24 65 -13 29 -26 62 -30 75 -4 12 -12 22 -17 22 -5 0 -9 6 -9 13 0 19 -24 67
-33 67 -5 0 -6 4 -3 8 3 5 -4 18 -14 30 -11 12 -20 24 -20 27 0 6 -100 157
-109 165 -3 3 -31 34 -61 70 -61 73 -146 158 -208 208 -50 41 -83 68 -99 82
-7 5 -17 10 -23 10 -5 0 -10 5 -10 10 0 6 -7 10 -15 10 -8 0 -15 5 -15 10 0 6
-5 10 -12 10 -6 0 -19 7 -28 15 -31 28 -252 139 -320 161 -14 4 -28 7 -32 6
-5 -1 -8 3 -8 8 0 6 -8 10 -17 10 -10 0 -38 7 -63 16 -25 9 -53 16 -62 17 -10
1 -18 4 -18 7 0 3 -8 6 -17 6 -10 1 -31 4 -48 8 -16 4 -43 9 -60 11 -16 2 -30
4 -30 5 0 11 -475 27 -486 16z"/>
</g>
</svg>
